<svg xmlns="http://www.w3.org/2000/svg" xmlns:xlink="http://www.w3.org/1999/xlink" viewBox="0 0 720 720"><defs><style>.cls-1{isolation:isolate;}.cls-2{opacity:0.17;fill:url(#Degradado_sin_nombre_102);}.cls-2,.cls-3{mix-blend-mode:overlay;}.cls-3{opacity:0.21;fill:url(#Degradado_sin_nombre_102-2);}.cls-4{opacity:0.36;fill:url(#Degradado_sin_nombre_102-3);}.cls-5{fill:#cb946d;}.cls-6{fill:#37324a;}.cls-7{fill:url(#Degradado_sin_nombre_102-4);}.cls-8{fill:#d7a17b;}.cls-9{fill:#d2a17c;}.cls-10{fill:#d7a17c;}.cls-11{fill:#3e80f4;}.cls-12{fill:#e33e14;}.cls-13{fill:#342b1e;}.cls-14{fill:url(#Degradado_sin_nombre_10);}.cls-15{fill:#fff;}.cls-16{fill:#0035cf;}.cls-17{fill:#004acf;}.cls-18{fill:#ebb693;}.cls-19{fill:#0035b3;}.cls-20{fill:#0035ca;}.cls-21{fill:#de380a;}.cls-22{fill:#ecbe9e;}.cls-23{fill:#ec4e9e;}.cls-24{fill:#37325d;}.cls-25{fill:#00b4f8;}.cls-26{fill:#280016;}.cls-27{opacity:0.14;fill:url(#Degradado_sin_nombre_102-5);}.cls-28{opacity:0.26;fill:url(#Degradado_sin_nombre_102-6);}</style><linearGradient id="Degradado_sin_nombre_102" x1="3729.722" y1="781.625" x2="4116.356" y2="781.625" gradientTransform="translate(1618.611 4024.068) rotate(-120.912)" gradientUnits="userSpaceOnUse"><stop offset="0" stop-color="#00f3ff"/><stop offset="1" stop-color="#4e7ff9"/></linearGradient><linearGradient id="Degradado_sin_nombre_102-2" x1="-462.497" y1="1672.853" x2="-162.239" y2="1672.853" gradientTransform="translate(1680.804 -692.899) rotate(34.774)" xlink:href="#Degradado_sin_nombre_102"/><linearGradient id="Degradado_sin_nombre_102-3" x1="2709.068" y1="260.15" x2="3111.466" y2="260.15" gradientTransform="translate(-238.142 3354.402) rotate(-85.583)" xlink:href="#Degradado_sin_nombre_102"/><linearGradient id="Degradado_sin_nombre_102-4" x1="272.44" y1="366.911" x2="546.006" y2="366.911" gradientTransform="matrix(1, 0, 0, 1, 0, 0)" xlink:href="#Degradado_sin_nombre_102"/><linearGradient id="Degradado_sin_nombre_10" x1="140.585" y1="219.496" x2="405.821" y2="219.496" gradientUnits="userSpaceOnUse"><stop offset="0" stop-color="#4e54f9"/><stop offset="1" stop-color="#00afff"/></linearGradient><linearGradient id="Degradado_sin_nombre_102-5" x1="613.031" y1="146.164" x2="715.824" y2="146.164" gradientTransform="matrix(1, 0, 0, 1, 0, 0)" xlink:href="#Degradado_sin_nombre_102"/><linearGradient id="Degradado_sin_nombre_102-6" x1="605.413" y1="235.642" x2="665.657" y2="235.642" gradientTransform="matrix(1, 0, 0, 1, 0, 0)" xlink:href="#Degradado_sin_nombre_102"/></defs><title>preguntas frecuentes </title><g class="cls-1"><g id="Layer_1" data-name="Layer 1"><path class="cls-2" d="M200.3,78.139C23.362,161.884-65.249,331.216,69.417,496.316,198.433,654.49,292.077,376.16,342.142,346.183c58.144-34.814,311.174-44.164,233.532-173.836S336.907,13.479,200.3,78.139Z"/><path class="cls-3" d="M580.82,605.211c72.367-131.036,30.891-291.141-41.12-338.055-132.918-86.595-53.469,62.152-145.115,193.6-30.123,43.206-206.257,130.854-109.772,197.849S524.034,708.037,580.82,605.211Z"/><path class="cls-4" d="M156.428,266.043c-58.711,2.851-95.8,93.972-104,200.191s71.25,198.979,177.469,207.185,198.979-71.25,207.184-177.47S303.19,258.917,156.428,266.043Z"/><path class="cls-5" d="M239.162,543.046s.158,2.865-2.963,6.088l2.534,3.581,8.694-3.261a26.855,26.855,0,0,1,.8-7.073Z"/><path class="cls-6" d="M237.069,549.032a2.565,2.565,0,0,0-2.863.793c-1.365,1.466-6.193,6.278-7.123,7.034s-2.4,3.713.312,4.031,18.064-6.384,19.446-8.175.6-4.8.6-4.8A9.93,9.93,0,0,1,237.069,549.032Z"/><path class="cls-5" d="M260.861,537.008s.412,2.84-2.412,6.326l2.84,3.343,8.372-4.018s-1.986-5.666-1.354-8.958Z"/><path class="cls-6" d="M259.306,543.155a2.565,2.565,0,0,0-2.781,1.044c-1.23,1.581-5.613,6.8-6.473,7.636s-2.066,3.912.668,3.988,17.428-7.957,18.646-9.863-.135-4.678-.135-4.678A9.365,9.365,0,0,1,259.306,543.155Z"/><path class="cls-7" d="M539.407,251.3H279.039a6.619,6.619,0,0,0-6.6,6.6V424.461a6.618,6.618,0,0,0,6.6,6.6h60.429L317.3,476.053a4.472,4.472,0,0,0,6.213,5.869L413.4,431.06H539.407a6.619,6.619,0,0,0,6.6-6.6V257.9A6.619,6.619,0,0,0,539.407,251.3Z"/><path class="cls-8" d="M260.887,318.035s7.286-1.032,9.419-6.564c0,0,.262-.5-1.2.377s-6.612,4.5-10.254-5.155-2.818-21.2-2.818-21.2l17.168-6.972,11.477,9.1-2.868,9.8-1.7,4.112s2.906,14.749,10.029,17.864l-22.464,5.123Z"/><path class="cls-9" d="M231.293,349.513s3.984-4.018,5.062-6.4,7.877,4.349,7.877,4.349l3.969,7.49s-8.982,11.376-13.231,10.03S231.293,349.513,231.293,349.513Z"/><path class="cls-10" d="M236.355,365.178s-3.629-16.018-5.491-19.868-3.365-8.577-2.811-11.8-5.531-12.686-5.531-12.686-5.517,14.233,2.893,36.175C225.415,357,229.828,366.3,236.355,365.178Z"/><path class="cls-11" d="M261.7,318.208s-2.019-2.854-9.94,2.875-17.824,15.956-18.493,20.256,15.443,7.85,15.443,7.85Z"/><path class="cls-12" d="M222.522,322.313v-8.66a1.742,1.742,0,0,1,1.575-1.733l10.207-.977a1.74,1.74,0,0,1,1.905,1.656l.969,21.952a1.741,1.741,0,0,1-1.865,1.813l-10.191-.737a1.742,1.742,0,0,1-1.609-1.589l-.984-11.577A1.452,1.452,0,0,1,222.522,322.313Z"/><path class="cls-13" d="M502.427,123.471s-18.9-.2-31.709,30.509-9.894,49.826-18.361,63.494,1.622,14.3,14.044,15.925,68.519-3.178,68.519-3.178,3.441-.747.561-8.661S517.356,145.7,517.356,145.7l-.1-5.269s3.491.769,3.638-1.688S518.194,119.86,502.427,123.471Z"/><path class="cls-14" d="M399.221,128.146H147.184a6.618,6.618,0,0,0-6.6,6.6V275.019a6.619,6.619,0,0,0,6.6,6.6H182.7l27.238,28.425a2.575,2.575,0,0,0,4.4-2.193l-4.247-26.232h189.13a6.619,6.619,0,0,0,6.6-6.6V134.745A6.619,6.619,0,0,0,399.221,128.146Z"/><rect class="cls-15" x="180.737" y="177.36" width="182.528" height="20"/><rect class="cls-15" x="180.737" y="216.137" width="182.528" height="20"/><rect class="cls-15" x="323.62" y="312.752" width="182.528" height="20"/><rect class="cls-15" x="323.62" y="351.528" width="182.528" height="20"/><path class="cls-16" d="M511.182,233.762s17-1.907,18.236-2.571c0,0,3.341,21.284,15.183,47.862,0,0,5.818,11.533,5.237,18.37s-6.654,60-6.654,60a20.653,20.653,0,0,0-5.375-.429l-6.54-68.461L508.2,254.343Z"/><path class="cls-17" d="M492.254,233.762s-6.947,12.758-10.056,17.859-2.222,14.384,12.234,28.646,23.9,24.563,26.6,37.428,6.558,40.661,6.558,40.661,9.386-1.374,10.216-1.367c0,0,4.506-40.7.212-56.875s-21.5-38.792-21.5-38.792-6.309-10.523-3.251-27.923C513.274,233.4,497.439,234.131,492.254,233.762Z"/><path class="cls-18" d="M467.718,210.65s2.053,20.746,11.58,29.507,29.242,12.067,37.308,12.577,18.241,5.794,19.907,4.61,2.953-4.7-7.59-8.086-24.127-3.715-35.446-12.451-10.709-25.722-10.709-25.722Z"/><path class="cls-18" d="M534.416,201.4s8.186,26.021,19.48,25.965,23.507-31.719,24.845-40.828-3.257-13.151-5.948-11.821-.075,11.04-.565,13.11-9.3,17.993-15.494,25.154c0,0-6.494-12.417-9.609-20.762Z"/><path class="cls-18" d="M479.293,180.684s8.564-5.227,10.238-7.721,4.685-4.6,4.287-17.027L510.757,164s-3.387.041-1.561,1.962,5.417,4.4,15.895,4.249,7.716,3.373,7.716,3.373L501.88,186.121Z"/><path class="cls-15" d="M470.877,213.908s-4.528.472-3.387-6.239c1.3-7.628.95-29.133,16.173-27.847s35.72-4.678,39.9-6.386,9.456-4.543,14.8-.355,13.2,18.152,9.58,21.223-11.93,7.39-12.264,8.573,1.418,8.664-3.566,15.625a39.234,39.234,0,0,0-2.693,14.9s-27.374,4.211-37.164.363c0,0-7.659-20.771-8.366-19.854S478.474,214.938,470.877,213.908Z"/><path class="cls-18" d="M536.279,356.46s2.321,9.523,7.2,14.955l3.875-2.569s-4.434-7.984-4.58-9.1a22.263,22.263,0,0,1,.363-4.1Z"/><path class="cls-18" d="M528.61,357.332a33.081,33.081,0,0,1,.641,5.382c-.128,1.342,10.411,9.3,10.411,9.3l3.7-1.92s-4.629-7.377-5.342-8.805-1.106-6.049-1.106-6.049Z"/><path class="cls-19" d="M547.12,368.42a5.538,5.538,0,0,1,2.98,3.991c.693,3.088-.462,3.928-3.039,3.332s-4.348-5.313-4.348-5.313S546.429,370.4,547.12,368.42Z"/><path class="cls-20" d="M543.363,370.093s3.433,4.171,2.769,6.376-2.962,2.9-5.764.748a35.8,35.8,0,0,1-5.1-5.2c-.777-.743-5.106-4.512-5.935-5.1s-3.322-3.968-.137-5.119c0,0,8.979,7.758,9.823,8.618S541.706,371.037,543.363,370.093Z"/><path class="cls-21" d="M502.427,123.471a32.468,32.468,0,0,0-12.237,20.8s.972,1.94,2.149,1.891,5.44-22.773,18.2-22.692C510.815,123.037,506.324,121.66,502.427,123.471Z"/><path class="cls-22" d="M495.323,156.62s-.667,2.483-3.389-1.217c-1.618-2.2-2-1.933-3.725-3.457s-2.737-8.033,1.558-7.506c.62,0,2.329,1.162,2.758,1.059s5.385-14.022,7.488-16.269c1.867-1.995,3-1.288,3-1.288l14.237,12.493s4.407,12.41.311,18.33-5.581,5.254-8.394,5.408S498.99,162.3,495.323,156.62Z"/><path class="cls-23" d="M574.958,175.3l-1.118-14.673a1.777,1.777,0,0,0-2-1.627l-11.472,1.481a1.777,1.777,0,0,0-1.541,1.931l2.471,25.776a1.775,1.775,0,0,0,2.1,1.576l11.1-2.1a1.775,1.775,0,0,0,1.438-1.911Z"/><path class="cls-6" d="M244.277,400.8s-14.031,40.782-13.392,55.663,27.728,79.491,27.728,79.491,1.537,2.168,5.065,1.323,6.421-2.007,5.8-4.966-15.424-59.158-15.424-59.158l13.567-69.342Z"/><path class="cls-24" d="M267.62,403.807S249.885,455.521,247,463.353s-9.239,36.036-9,64.908c0,0-.819,15.289.607,16.029s9.412,3.053,10.82-2.764,9.527-54.891,15.191-68.509,18.206-39.146,20.773-42.347,9.547-10.46,6.466-26.412Z"/><path class="cls-25" d="M303.4,329.318s-11.078-11.737-13.977-10.865-16.579,5.936-27.725-.245c0,0-4.419-2.926-9.854,12.406S240.661,381.529,242,402.108c0,0,.59,1.263,8.409,2.019s40.958,2.9,42.039,1.522-.81-48.471.635-56.46S303.4,329.318,303.4,329.318Z"/><path class="cls-8" d="M230.452,325.542s-5.219-1.493-4.261,2.2,6.752,8.836,8.191,9.605,9.305,11.076,9.973,12.351,7.453,15.048,21.254,23.911,26.928-13.47,26.928-13.47l-15.575-6.22s-7.3,7.5-8.337,7.744-16.1-13.9-23.418-22.293a66.213,66.213,0,0,1-4.954-6.741C239.351,330.828,234.445,326.7,230.452,325.542Z"/><path class="cls-26" d="M270.348,281.93a20.06,20.06,0,0,1-11.493,5.167c-7.328.833-12.354-1.206-11.273-6.121s12.2-14.772,27.051-13.617,14.277,20.325,13.952,21.625-7.326,14.264-7.611,15.967-4.532-4.845-3.15-9.091,5.267-2.6,3.887-6.876-6.087,1.4-6.241,2.066-.409.1-.511-.92S274.587,280.034,270.348,281.93Z"/><path class="cls-11" d="M305.514,330.145s-3.313-4.459-11.069,3.646c-8.246,8.617-18.862,19.292-18.258,21.21s11.353,11.5,11.353,11.5,1.265,1.961,4.625-.474S319.682,342.679,305.514,330.145Z"/><circle class="cls-27" cx="664.428" cy="146.164" r="51.397"/><circle class="cls-28" cx="635.535" cy="235.642" r="30.122"/></g></g></svg>